<?xml version="1.0"?>
<svg xmlns="http://www.w3.org/2000/svg" xmlns:xlink="http://www.w3.org/1999/xlink" version="1.1" id="Layer_1" x="0px" y="0px" viewBox="0 0 512.002 512.002" style="enable-background:new 0 0 512.002 512.002;" xml:space="preserve" width="512px" height="512px"><g><rect x="137.916" y="385.67" style="fill:#85C9FF;" width="236.168" height="53.248" data-original="#85C9FF"/><rect x="256" y="385.67" style="fill:#00A6FF;" width="118.084" height="53.248" data-original="#00A6FF"/><polygon style="fill:#766957;" points="383.553,165.216 283.662,220.208 342.345,288.806 423.269,268.575 " data-original="#766957"/><polygon style="fill:#867B6E;" points="93.799,268.575 174.724,288.806 233.407,220.208 133.516,165.216 " data-original="#867B6E"/><polygon style="fill:#DFCCBE;" points="488.699,203.163 374.063,402.352 137.937,402.352 23.301,203.163 164.571,263.548   256,105.194 347.429,263.548 " data-original="#DFCCBE"/><circle style="fill:#85C9FF;" cx="31.725" cy="209.427" r="31.725" data-original="#85C9FF"/><polygon style="fill:#BD9B7B;" points="488.699,203.163 374.063,402.352 256,402.352 256,105.194 347.429,263.548 " data-original="#BD9B7B"/><path style="fill:#85C9FF;" d="M287.723,104.807c0,17.523-14.2,31.734-31.723,31.734s-31.723-14.211-31.723-31.734  c0-17.512,14.2-31.723,31.723-31.723S287.723,87.294,287.723,104.807z" data-original="#85C9FF"/><g>
	<path style="fill:#00A6FF;" d="M256,136.54V73.084c17.523,0,31.723,14.211,31.723,31.723C287.723,122.33,273.523,136.54,256,136.54   z" data-original="#00A6FF"/>
	<circle style="fill:#00A6FF;" cx="480.277" cy="212.238" r="31.725" data-original="#00A6FF"/>
</g></g> </svg>
