<?xml version="1.0"?>
<svg xmlns="http://www.w3.org/2000/svg" xmlns:xlink="http://www.w3.org/1999/xlink" version="1.1" id="Capa_1" x="0px" y="0px" viewBox="0 0 512 512" style="enable-background:new 0 0 512 512;" xml:space="preserve" width="512px" height="512px" class=""><g><rect x="77.64" y="121.55" style="fill:#FD785B" width="356.72" height="390.45" data-original="#D9D9DB" class="active-path" data-old_color="#fd785B"/><g>
	<rect x="256.1" y="121.55" style="fill:#FC5736" width="178.26" height="390.45" data-original="#AEADB3" class="" data-old_color="#AEADB3"/>
	<rect x="169.09" y="220.19" style="fill:#FC5736" width="30" height="193.17" data-original="#AEADB3" class="" data-old_color="#AEADB3"/>
	<rect x="241" y="220.19" style="fill:#FC5736" width="30" height="193.17" data-original="#AEADB3" class="" data-old_color="#AEADB3"/>
</g><g>
	<rect x="312.91" y="220.19" style="fill:#FD785B" width="30" height="193.17" data-original="#8B8992" class="" data-old_color="#fd785B"/>
	<rect x="256.1" y="220.19" style="fill:#FD785B" width="14.9" height="193.17" data-original="#8B8992" class="" data-old_color="#fd785B"/>
</g><g>
	<polygon style="fill:#FC5736" points="320.89,0 320.89,71.21 290.89,71.21 290.89,30 221.11,30 221.11,71.21 191.11,71.21    191.11,0  " data-original="#AEADB3" class="" data-old_color="#AEADB3"/>
	<rect x="45.5" y="56.21" style="fill:#FC5736" width="421" height="95.34" data-original="#AEADB3" class="" data-old_color="#AEADB3"/>
</g><polygon style="fill:#FD785B" points="320.89,56.21 320.89,0 256.1,0 256.1,30 290.89,30 290.89,56.21 256.1,56.21 256.1,151.55   466.5,151.55 466.5,56.21 " data-original="#8B8992" class="" data-old_color="#fd785B"/></g> </svg>
