<?xml version="1.0"?>
<svg xmlns="http://www.w3.org/2000/svg" xmlns:xlink="http://www.w3.org/1999/xlink" version="1.1" id="Layer_1" x="0px" y="0px" viewBox="0 0 512 512" style="enable-background:new 0 0 512 512;" xml:space="preserve" width="512px" height="512px"><g><path style="fill:#FFEFD9;" d="M395.631,98.837C358.783,45.867,309.195,16.696,256,16.696S153.217,45.867,116.369,98.837  c-35.565,51.124-55.151,118.797-55.151,190.554c0,113.54,87.379,205.913,194.783,205.913s194.783-92.373,194.783-205.913  C450.783,217.635,431.196,149.961,395.631,98.837z" data-original="#FFEFD9"/><path style="fill:#FFD6A0;" d="M256,495.304c107.403,0,194.783-92.373,194.783-205.913c0-71.757-19.586-139.43-55.151-190.554  C358.783,45.867,309.195,16.696,256,16.696" data-original="#FFD6A0"/><g>
	<rect y="128" style="fill:#C9E3F7;" width="55.652" height="33.391" data-original="#C9E3F7"/>
	
		<rect x="13.053" y="51.94" transform="matrix(-0.9428 -0.3333 0.3333 -0.9428 56.5416 146.9716)" style="fill:#C9E3F7;" width="55.65" height="33.391" data-original="#C9E3F7"/>
	<rect x="456.348" y="128" style="fill:#C9E3F7;" width="55.652" height="33.391" data-original="#C9E3F7"/>
	
		<rect x="454.411" y="40.807" transform="matrix(-0.3333 -0.9428 0.9428 -0.3333 563.422 535.6761)" style="fill:#C9E3F7;" width="33.391" height="55.65" data-original="#C9E3F7"/>
</g><g>
	<path style="fill:#FFC170;" d="M187.719,277.315l14.949-29.896l-47.598-21.154L61.411,277.35c-0.124,4-0.194,8.013-0.194,12.041   c0,8.564,0.505,17.005,1.471,25.298l93.892-51.214L187.719,277.315z" data-original="#FFC170"/>
	<path style="fill:#FFC170;" d="M450.63,278.997l-105.587-52.794l-89.463,44.731l-22.369-9.942l-14.948,29.896l38.155,16.958   l88.625-44.31l104.166,52.083c1.038-8.59,1.573-17.345,1.573-26.228C450.783,285.915,450.723,282.453,450.63,278.997z" data-original="#FFC170"/>
</g><path style="fill:#FF9811" d="M450.63,278.997l-105.587-52.794l-89.463,44.731l0.839,36.913l88.624-44.31l104.166,52.083  c1.038-8.59,1.573-17.345,1.573-26.228C450.783,285.915,450.723,282.453,450.63,278.997z" data-original="#FF9811" class="active-path"/></g> </svg>
