<?xml version="1.0" encoding="utf-8"?>
<!-- Generator: Adobe Illustrator 21.1.0, SVG Export Plug-In . SVG Version: 6.00 Build 0)  -->
<svg version="1.1" id="Capa_1" xmlns="http://www.w3.org/2000/svg" xmlns:xlink="http://www.w3.org/1999/xlink" x="0px" y="0px"
	 viewBox="0 0 370 370" style="enable-background:new 0 0 370 370;" xml:space="preserve">
<style type="text/css">
	.st0{fill:#F9E375;}
	.st1{fill:#F5D361;}
	.st2{fill:#E86950;}
	.st3{fill:#E25744;}
</style>
<g id="XMLID_502_">
	<g id="XMLID_503_">
		<g id="XMLID_511_">
			<g id="XMLID_1307_">
				<g id="XMLID_1308_">
					<g id="XMLID_1309_">
						<path id="XMLID_1310_" class="st0" d="M185,290c-55.1,0-100-44.9-100-100v-90C85,44.9,129.9,0,185,0s100,44.9,100,100v90
							C285,245.1,240.1,290,185,290z M185,40c-33.1,0-60,26.9-60,60v90c0,33.1,26.9,60,60,60s60-26.9,60-60v-90
							C245,66.9,218.1,40,185,40z"/>
					</g>
				</g>
			</g>
		</g>
		<path id="XMLID_524_" class="st1" d="M185,0v40c33.1,0,60,26.9,60,60v90c0,33.1-26.9,60-60,60v40c55.1,0,100-44.9,100-100v-90
			C285,44.9,240.1,0,185,0z"/>
	</g>
	<g id="XMLID_525_">
		<circle id="XMLID_526_" class="st2" cx="185" cy="245" r="125"/>
		<path id="XMLID_531_" class="st3" d="M185,120v250c69,0,125-56,125-125S254,120,185,120z"/>
	</g>
	<g id="XMLID_532_">
		<path id="XMLID_535_" class="st0" d="M216.2,231.6c0-17.3-14-31.2-31.2-31.2s-31.2,14-31.2,31.2c0,11.6,6.3,21.7,15.6,27.1v31
			h31.2v-31C210,253.3,216.2,243.2,216.2,231.6z"/>
		<path id="XMLID_783_" class="st1" d="M185,200.4v89.3h15.6v-31c9.3-5.4,15.6-15.5,15.6-27.1C216.2,214.3,202.3,200.4,185,200.4z"
			/>
	</g>
</g>
</svg>
